<svg width="24" height="24" viewBox="0 0 24 24" fill="none" xmlns="http://www.w3.org/2000/svg">
<rect width="24" height="24" rx="12" fill="white" fill-opacity="0.1"/>
<path fill-rule="evenodd" clip-rule="evenodd" d="M16.7819 9.03202C16.8353 8.97864 16.8778 8.91525 16.9067 8.84548C16.9357 8.77571 16.9506 8.70092 16.9506 8.62538C16.9507 8.54984 16.9358 8.47503 16.907 8.40522C16.8781 8.33541 16.8358 8.27197 16.7824 8.21852C16.729 8.16508 16.6656 8.12267 16.5959 8.09371C16.5261 8.06476 16.4513 8.04984 16.3758 8.04979C16.3002 8.04975 16.2254 8.06458 16.1556 8.09344C16.0858 8.12231 16.0223 8.16464 15.9689 8.21802L12.4999 11.687L9.0319 8.21802C8.92396 8.11008 8.77756 8.04944 8.6249 8.04944C8.47225 8.04944 8.32584 8.11008 8.2179 8.21802C8.10996 8.32597 8.04932 8.47237 8.04932 8.62502C8.04932 8.77768 8.10996 8.92408 8.2179 9.03202L11.6869 12.5L8.2179 15.968C8.16445 16.0215 8.12206 16.0849 8.09313 16.1548C8.0642 16.2246 8.04932 16.2994 8.04932 16.375C8.04932 16.4506 8.0642 16.5255 8.09313 16.5953C8.12206 16.6651 8.16445 16.7286 8.2179 16.782C8.32584 16.89 8.47225 16.9506 8.6249 16.9506C8.70049 16.9506 8.77533 16.9357 8.84517 16.9068C8.915 16.8779 8.97845 16.8355 9.0319 16.782L12.4999 13.313L15.9689 16.782C16.0768 16.8898 16.2232 16.9503 16.3758 16.9503C16.5283 16.9502 16.6746 16.8895 16.7824 16.7815C16.8902 16.6736 16.9507 16.5272 16.9506 16.3747C16.9505 16.2221 16.8898 16.0758 16.7819 15.968L13.3129 12.5L16.7819 9.03202Z" fill="white"/>
</svg>
