<svg width="32" height="32" viewBox="0 0 32 32" fill="none" xmlns="http://www.w3.org/2000/svg">
<rect width="32" height="32" rx="16" fill="#4EAD60" fill-opacity="0.2"/>
<path fill-rule="evenodd" clip-rule="evenodd" d="M16 26C21.523 26 26 21.523 26 16C26 10.477 21.523 6 16 6C10.477 6 6 10.477 6 16C6 21.523 10.477 26 16 26ZM21.371 12.835C21.4178 12.7868 21.4544 12.7297 21.4786 12.667C21.5028 12.6044 21.5142 12.5375 21.512 12.4704C21.5098 12.4032 21.4941 12.3372 21.4658 12.2763C21.4375 12.2154 21.3973 12.1608 21.3474 12.1158C21.2976 12.0707 21.2392 12.0362 21.1757 12.0142C21.1123 11.9923 21.045 11.9833 20.978 11.9879C20.911 11.9925 20.8456 12.0106 20.7857 12.041C20.7259 12.0714 20.6727 12.1136 20.6295 12.165L14.64 18.7835L11.345 15.638C11.2491 15.5464 11.1208 15.4966 10.9882 15.4996C10.8556 15.5026 10.7296 15.5581 10.638 15.654C10.5464 15.7499 10.4966 15.8782 10.4996 16.0108C10.5026 16.1434 10.5581 16.2694 10.654 16.361L14.321 19.861L14.6925 20.216L15.037 19.835L21.371 12.835Z" fill="#55BA68"/>
</svg>
