<svg width="15" height="15" viewBox="0 0 15 15" fill="none" xmlns="http://www.w3.org/2000/svg">
<rect width="15" height="15" rx="7.5" fill="white" fill-opacity="0.1"/>
<path fill-rule="evenodd" clip-rule="evenodd" d="M11.7824 4.03199C11.8358 3.97861 11.8782 3.91522 11.9072 3.84545C11.9361 3.77568 11.9511 3.70089 11.9511 3.62535C11.9512 3.54981 11.9363 3.475 11.9075 3.40519C11.8786 3.33538 11.8363 3.27194 11.7829 3.21849C11.7295 3.16504 11.6661 3.12263 11.5963 3.09368C11.5266 3.06473 11.4518 3.04981 11.3762 3.04976C11.3007 3.04972 11.2259 3.06455 11.1561 3.09341C11.0863 3.12228 11.0228 3.16461 10.9694 3.21799L7.50039 6.68699L4.03239 3.21799C3.92445 3.11005 3.77804 3.04941 3.62539 3.04941C3.47273 3.04941 3.32633 3.11005 3.21839 3.21799C3.11045 3.32594 3.0498 3.47234 3.0498 3.62499C3.0498 3.77765 3.11045 3.92405 3.21839 4.03199L6.68739 7.49999L3.21839 10.968C3.16494 11.0214 3.12254 11.0849 3.09362 11.1547C3.06469 11.2246 3.0498 11.2994 3.0498 11.375C3.0498 11.4506 3.06469 11.5254 3.09362 11.5953C3.12254 11.6651 3.16494 11.7285 3.21839 11.782C3.32633 11.8899 3.47273 11.9506 3.62539 11.9506C3.70098 11.9506 3.77582 11.9357 3.84566 11.9068C3.91549 11.8778 3.97894 11.8354 4.03239 11.782L7.50039 8.31299L10.9694 11.782C11.0773 11.8898 11.2237 11.9503 11.3762 11.9502C11.5288 11.9501 11.6751 11.8894 11.7829 11.7815C11.8907 11.6735 11.9512 11.5272 11.9511 11.3746C11.951 11.2221 11.8903 11.0758 11.7824 10.968L8.31339 7.49999L11.7824 4.03199Z" fill="white"/>
</svg>
