<svg width="32" height="32" viewBox="0 0 32 32" fill="none" xmlns="http://www.w3.org/2000/svg">
<rect width="32" height="32" rx="16" fill="white" fill-opacity="0.2"/>
<path fill-rule="evenodd" clip-rule="evenodd" d="M22.851 10.4512C22.9366 10.3658 23.0044 10.2644 23.0507 10.1527C23.0971 10.0411 23.1209 9.92143 23.121 9.80056C23.1211 9.6797 23.0974 9.56 23.0512 9.44831C23.005 9.33661 22.9373 9.23511 22.8518 9.14959C22.7664 9.06408 22.665 8.99622 22.5534 8.9499C22.4417 8.90358 22.3221 8.8797 22.2012 8.87962C22.0803 8.87955 21.9606 8.90328 21.849 8.94947C21.7373 8.99565 21.6358 9.06338 21.5502 9.14879L15.9998 14.6992L10.451 9.14879C10.2783 8.97609 10.0441 8.87906 9.79984 8.87906C9.55559 8.87906 9.32135 8.97609 9.14864 9.14879C8.97593 9.3215 8.87891 9.55575 8.87891 9.79999C8.87891 10.0442 8.97593 10.2785 9.14864 10.4512L14.699 16L9.14864 21.5488C9.06313 21.6343 8.99529 21.7358 8.94901 21.8476C8.90273 21.9593 8.87891 22.0791 8.87891 22.2C8.87891 22.3209 8.90273 22.4407 8.94901 22.5524C8.99529 22.6642 9.06313 22.7657 9.14864 22.8512C9.32135 23.0239 9.55559 23.1209 9.79984 23.1209C9.92078 23.1209 10.0405 23.0971 10.1523 23.0508C10.264 23.0045 10.3655 22.9367 10.451 22.8512L15.9998 17.3008L21.5502 22.8512C21.7229 23.0237 21.9571 23.1205 22.2012 23.1204C22.4453 23.1202 22.6793 23.0231 22.8518 22.8504C23.0243 22.6777 23.1212 22.4435 23.121 22.1994C23.1209 21.9553 23.0237 21.7213 22.851 21.5488L17.3006 16L22.851 10.4512Z" fill="#FF6666"/>
</svg>
