<svg width="16" height="16" viewBox="0 0 16 16" fill="none" xmlns="http://www.w3.org/2000/svg">
<g clip-path="url(#clip0_613_9923)">
<path d="M14.3335 11.5225C14.9345 10.4457 15.25 9.23312 15.25 8C15.25 6.76687 14.9345 5.55425 14.3335 4.4775C14.3303 4.44248 14.3196 4.40857 14.3021 4.37809C14.2846 4.34762 14.2606 4.32131 14.232 4.301C13.4214 2.93469 12.1846 1.87243 10.7115 1.27753C9.23848 0.682624 7.61081 0.588019 6.07877 1.00825C4.54672 1.42849 3.19511 2.3403 2.23175 3.6035C1.26838 4.8667 0.746582 6.41136 0.746582 8C0.746582 9.58863 1.26838 11.1333 2.23175 12.3965C3.19511 13.6597 4.54672 14.5715 6.07877 14.9917C7.61081 15.412 9.23848 15.3174 10.7115 14.7225C12.1846 14.1276 13.4214 13.0653 14.232 11.699C14.2606 11.6787 14.2846 11.6524 14.3021 11.6219C14.3196 11.5914 14.3303 11.5575 14.3335 11.5225ZM3.84496 11.75H4.98971C5.22939 12.6934 5.66756 13.5749 6.27496 14.3355C5.20666 13.7591 4.35402 12.852 3.84496 11.75ZM1.25621 8.25H2.50471C2.52751 9.27564 2.72395 10.29 3.08571 11.25H2.08571C1.5776 10.329 1.29344 9.30124 1.25621 8.25ZM2.08621 4.75H3.08621C2.72445 5.71 2.52801 6.72436 2.50521 7.75H1.25621C1.29359 6.69872 1.57793 5.671 2.08621 4.75ZM12.155 4.25H11.0102C10.7705 3.30658 10.3324 2.42513 9.72496 1.6645C10.7933 2.24085 11.6459 3.14804 12.155 4.25ZM14.7437 7.75H13.4952C13.4724 6.72436 13.276 5.71 12.9142 4.75H13.9142C14.4223 5.67104 14.7065 6.69876 14.7437 7.75ZM12.9952 7.75H11.497C11.4861 6.74009 11.3665 5.73428 11.1402 4.75H12.3805C12.764 5.70494 12.9722 6.72118 12.9952 7.75ZM7.74996 4.75V7.75H5.00296C5.01634 6.73879 5.14433 5.73237 5.38446 4.75H7.74996ZM5.52246 4.25C6.02246 2.6035 6.83546 1.45575 7.74996 1.2765V4.25H5.52246ZM7.74996 8.25V11.25H5.38446C5.14433 10.2676 5.01634 9.2612 5.00296 8.25H7.74996ZM7.74996 11.75V14.7235C6.83546 14.5442 6.02271 13.3965 5.52246 11.75H7.74996ZM8.24996 11.25V8.25H10.997C10.9836 9.2612 10.8556 10.2676 10.6155 11.25H8.24996ZM10.4775 11.75C9.97746 13.3965 9.16421 14.5442 8.24996 14.7235V11.75H10.4775ZM8.24996 7.75V4.75H10.6155C10.8556 5.73237 10.9836 6.73879 10.997 7.75H8.24996ZM8.24996 4.25V1.2765C9.16421 1.45575 9.97696 2.6035 10.4775 4.25H8.24996ZM6.27496 1.6645C5.66756 2.42513 5.22939 3.30658 4.98971 4.25H3.84496C4.35402 3.14804 5.20666 2.24085 6.27496 1.6645ZM4.85946 4.75C4.63321 5.73429 4.51369 6.7401 4.50296 7.75H3.00471C3.02763 6.7212 3.23579 5.70496 3.61921 4.75H4.85946ZM3.00471 8.25H4.50296C4.51369 9.2599 4.63321 10.2657 4.85946 11.25H3.61921C3.23579 10.295 3.02763 9.2788 3.00471 8.25ZM9.72496 14.3355C10.3324 13.5749 10.7705 12.6934 11.0102 11.75H12.155C11.6459 12.852 10.7933 13.7591 9.72496 14.3355ZM11.1402 11.25C11.3665 10.2657 11.4861 9.25991 11.497 8.25H12.9952C12.9722 9.27881 12.764 10.2951 12.3805 11.25H11.1402ZM13.4952 8.25H14.7437C14.7063 9.30128 14.422 10.329 13.9137 11.25H12.9137C13.2756 10.29 13.4722 9.27567 13.4952 8.25ZM13.6092 4.25H12.7055C12.3231 3.39604 11.7701 2.62932 11.0805 1.997C12.1 2.52259 12.9699 3.29765 13.6092 4.25ZM4.91921 1.997C4.22972 2.6294 3.67681 3.3961 3.29446 4.25H2.39071C3.02992 3.29766 3.89976 2.5226 4.91921 1.997ZM2.39071 11.75H3.29446C3.67688 12.6039 4.22988 13.3706 4.91946 14.003C3.89992 13.4774 3.02999 12.7024 2.39071 11.75ZM11.0805 14.003C11.7701 13.3707 12.3231 12.604 12.7055 11.75H13.6092C12.9699 12.7023 12.1 13.4774 11.0805 14.003Z" fill="#717171"/>
</g>
<defs>
<clipPath id="clip0_613_9923">
<rect width="16" height="16" fill="white"/>
</clipPath>
</defs>
</svg>
